REM DIRINDEX 1\3,1\5,1\6,1\2\7,1\2\8,1\4\9,1\4\10
REM DIRNAME folder01,folder02,folder03,folder04,folder05,folder06,folder07,folder08,folder09,folder10
TITLE ""
FILE "CD2Track29.mp3" MP3
  TRACK 01 AUDIO
    TITLE "9:cjc060_1926"
    INDEX 01 00:00:00
  TRACK 02 AUDIO
    TITLE "10:cjc060_1927"
    INDEX 01 00:01:34
  TRACK 03 AUDIO
    TITLE "9:cjc060_1928"
    INDEX 01 00:05:07
  TRACK 04 AUDIO
    TITLE "10:cjc060_1929"
    INDEX 01 00:06:28
  TRACK 05 AUDIO
    TITLE "9:cjc060_1930"
    INDEX 01 00:09:22
  TRACK 06 AUDIO
    TITLE "10:cjc060_1931"
    INDEX 01 00:10:55
  TRACK 07 AUDIO
    TITLE "9:cjc060_1932"
    INDEX 01 00:15:42
  TRACK 08 AUDIO
    TITLE "10:cjc060_1933"
    INDEX 01 00:16:57
  TRACK 09 AUDIO
    TITLE "9:cjc060_1934"
    INDEX 01 00:20:18
  TRACK 10 AUDIO
    TITLE "10:cjc060_1935"
    INDEX 01 00:21:39
  TRACK 11 AUDIO
    TITLE "9:cjc060_1936"
    INDEX 01 00:24:55
  TRACK 12 AUDIO
    TITLE "10:cjc060_1937"
    INDEX 01 00:26:13
  TRACK 13 AUDIO
    TITLE "9:cjc060_1938"
    INDEX 01 00:29:48
  TRACK 14 AUDIO
    TITLE "10:cjc060_1939"
    INDEX 01 00:31:22
  TRACK 15 AUDIO
    TITLE "9:cjc060_1940"
    INDEX 01 00:35:12
  TRACK 16 AUDIO
    TITLE "10:cjc060_1941"
    INDEX 01 00:36:36
  TRACK 17 AUDIO
    TITLE "10:cjc060_1942"
    INDEX 01 00:38:51
  TRACK 18 AUDIO
    TITLE "9:cjc060_1943"
    INDEX 01 00:41:42
  TRACK 19 AUDIO
    TITLE "10:cjc060_1944"
    INDEX 01 00:43:01
  TRACK 20 AUDIO
    TITLE "9:cjc060_1945"
    INDEX 01 00:46:54
  TRACK 21 AUDIO
    TITLE "10:cjc060_1946"
    INDEX 01 00:48:24
  TRACK 22 AUDIO
    TITLE "9:cjc060_1947"
    INDEX 01 00:53:37
  TRACK 23 AUDIO
    TITLE "10:cjc060_1948"
    INDEX 01 00:54:64
  TRACK 24 AUDIO
    TITLE "9:cjc060_1949"
    INDEX 01 00:58:67
  TRACK 25 AUDIO
    TITLE "10:cjc060_1950"
    INDEX 01 01:00:29
  TRACK 26 AUDIO
    TITLE "9:cjc060_1951"
    INDEX 01 01:04:52
  TRACK 27 AUDIO
    TITLE "10:cjc060_1952"
    INDEX 01 01:06:12
  TRACK 28 AUDIO
    TITLE "9:cjc060_1953"
    INDEX 01 01:10:67
  TRACK 29 AUDIO
    TITLE "10:cjc060_1954"
    INDEX 01 01:12:23
  TRACK 30 AUDIO
    TITLE "9:cjc060_1955"
    INDEX 01 01:16:32
  TRACK 31 AUDIO
    TITLE "10:cjc060_1956"
    INDEX 01 01:18:00
  TRACK 32 AUDIO
    TITLE "9:cjc060_1957"
    INDEX 01 01:21:53
  TRACK 33 AUDIO
    TITLE "10:cjc060_1958"
    INDEX 01 01:23:11
  TRACK 34 AUDIO
    TITLE "9:cjc060_1959"
    INDEX 01 01:27:38
  TRACK 35 AUDIO
    TITLE "10:cjc060_1960"
    INDEX 01 01:29:15
  TRACK 36 AUDIO
    TITLE "9:cjc060_1961"
    INDEX 01 01:33:09
  TRACK 37 AUDIO
    TITLE "10:cjc060_1962"
    INDEX 01 01:34:52
  TRACK 38 AUDIO
    TITLE "9:cjc060_1963"
    INDEX 01 01:38:43
  TRACK 39 AUDIO
    TITLE "10:cjc060_1964"
    INDEX 01 01:40:23
  TRACK 40 AUDIO
    TITLE "9:cjc060_1965"
    INDEX 01 01:44:17
  TRACK 41 AUDIO
    TITLE "10:cjc060_1966"
    INDEX 01 01:45:47
  TRACK 42 AUDIO
    TITLE "9:cjc060_1967"
    INDEX 01 01:50:31
  TRACK 43 AUDIO
    TITLE "10:cjc060_1968"
    INDEX 01 01:51:58
  TRACK 44 AUDIO
    TITLE "9:cjc060_1969"
    INDEX 01 01:55:09
  TRACK 45 AUDIO
    TITLE "10:cjc060_1970"
    INDEX 01 01:56:28
  TRACK 46 AUDIO
    TITLE "9:cjc060_1971"
    INDEX 01 01:59:65
  TRACK 47 AUDIO
    TITLE "10:cjc060_1972"
    INDEX 01 02:01:15
  TRACK 48 AUDIO
    TITLE "9:cjc060_1973"
    INDEX 01 02:04:31
  TRACK 49 AUDIO
    TITLE "10:cjc060_1974"
    INDEX 01 02:05:33
  TRACK 50 AUDIO
    TITLE "10:cjc060_1975"
    INDEX 01 02:08:58
  TRACK 51 AUDIO
    TITLE "10:cjc060_1976"
    INDEX 01 02:11:35
  TRACK 52 AUDIO
    TITLE "10:cjc060_1977"
    INDEX 01 02:14:06
  TRACK 53 AUDIO
    TITLE "10:cjc060_1978"
    INDEX 01 02:16:70
  TRACK 54 AUDIO
    TITLE "9:cjc060_1979"
    INDEX 01 02:19:44
  TRACK 55 AUDIO
    TITLE "10:cjc060_1980"
    INDEX 01 02:20:73
  TRACK 56 AUDIO
    TITLE "9:cjc060_1981"
    INDEX 01 02:23:68
  TRACK 57 AUDIO
    TITLE "10:cjc060_1982"
    INDEX 01 02:25:14
  TRACK 58 AUDIO
    TITLE "9:cjc060_1983"
    INDEX 01 02:28:37
  TRACK 59 AUDIO
    TITLE "10:cjc060_1984"
    INDEX 01 02:29:47
  TRACK 60 AUDIO
    TITLE "9:cjc060_1985"
    INDEX 01 02:33:01
  TRACK 61 AUDIO
    TITLE "10:cjc060_1986"
    INDEX 01 02:34:18
  TRACK 62 AUDIO
    TITLE "9:cjc060_1987"
    INDEX 01 02:37:60
  TRACK 63 AUDIO
    TITLE "10:cjc060_1988"
    INDEX 01 02:39:10
  TRACK 64 AUDIO
    TITLE "9:cjc060_1989"
    INDEX 01 02:42:14
  TRACK 65 AUDIO
    TITLE "10:cjc060_1990"
    INDEX 01 02:43:47
  TRACK 66 AUDIO
    TITLE "0:"
    INDEX 01 02:46:47
